<svg xmlns="http://www.w3.org/2000/svg" width="29" height="30" viewBox="0 0 29 30"><g><g><path fill="#82878a" d="M13.504 18.579c.029.121.043.242.043.36 0 1.232-.92 1.858-2.735 1.858-1.375 0-2.454-.844-2.454-1.922 0-.991 1.259-1.86 2.694-1.86h.037c.312.005.617.05.904.139.1.067.193.132.285.193.664.454 1.103.753 1.226 1.232zm-2.256-4.993c-.911-.028-1.822-1.105-1.985-2.352-.091-.697.056-1.323.402-1.719a1.1 1.1 0 0 1 .847-.392l.037.002c.93.027 1.823 1.065 1.986 2.313.092.698-.064 1.356-.415 1.757a1.1 1.1 0 0 1-.857.391h-.015zM28.348 15c0 7.814-6.357 14.171-14.171 14.171C6.363 29.17.006 22.813.006 15 .006 7.185 6.363.828 14.176.828c7.815 0 14.172 6.357 14.172 14.17zm-13.055 3.766c0-1.36-.437-2.176-1.612-3.007-.505-.357-.962-.88-.97-1.041 0-.292.026-.433.682-.944.85-.665 1.317-1.538 1.317-2.461 0-.836-.256-1.581-.691-2.104h.338c.07 0 .138-.021.194-.061l.942-.682a.33.33 0 0 0-.194-.6h-4.214c-.46 0-.929.082-1.389.24-1.535.529-2.609 1.838-2.609 3.181 0 1.902 1.475 3.345 3.445 3.39-.039.151-.058.3-.058.445 0 .293.074.571.226.84h-.054c-1.878 0-3.574.922-4.217 2.293a2.52 2.52 0 0 0-.253 1.073c0 .347.088.68.263.993.405.723 1.273 1.285 2.447 1.581a7.896 7.896 0 0 0 1.934.232c.608 0 1.188-.079 1.723-.234 1.67-.485 2.75-1.713 2.75-3.134zm6.766-4.775a.332.332 0 0 0-.33-.331h-2.396v-2.394a.33.33 0 0 0-.33-.33h-.682a.331.331 0 0 0-.332.33v2.394h-2.394a.332.332 0 0 0-.331.332v.68a.33.33 0 0 0 .33.332h2.395v2.396c0 .183.148.33.332.33h.682a.33.33 0 0 0 .33-.33v-2.396h2.395a.332.332 0 0 0 .331-.331z"/></g></g></svg>