<svg xmlns="http://www.w3.org/2000/svg" width="29" height="30" viewBox="0 0 29 30"><g><g><path fill="#82878a" d="M28.954 14.999c0 7.814-6.357 14.171-14.171 14.171C6.969 29.17.612 22.813.612 15 .612 7.185 6.969.828 14.782.828c7.815 0 14.172 6.357 14.172 14.17zm-6.223-4.93a6.5 6.5 0 0 1-1.873.514 3.275 3.275 0 0 0 1.435-1.805 6.502 6.502 0 0 1-2.072.791 3.262 3.262 0 0 0-5.558 2.976A9.263 9.263 0 0 1 7.94 9.136a3.248 3.248 0 0 0-.44 1.64 3.26 3.26 0 0 0 1.45 2.715 3.247 3.247 0 0 1-1.477-.408v.041a3.263 3.263 0 0 0 2.615 3.198 3.28 3.28 0 0 1-1.472.056 3.265 3.265 0 0 0 3.047 2.265 6.545 6.545 0 0 1-4.83 1.35 9.229 9.229 0 0 0 5 1.466c6 0 9.281-4.97 9.281-9.28 0-.141-.003-.283-.01-.423a6.596 6.596 0 0 0 1.627-1.687z"/></g></g></svg>